<?xml version="1.0" encoding="utf-8"?>
<!-- Generator: Adobe Illustrator 24.0.2, SVG Export Plug-In . SVG Version: 6.00 Build 0)  -->
<svg version="1.1" id="Calque_1" xmlns="http://www.w3.org/2000/svg" xmlns:xlink="http://www.w3.org/1999/xlink" x="0px" y="0px"
	 viewBox="0 0 100 125" style="enable-background:new 0 0 100 125;" xml:space="preserve">
<style type="text/css">
	.st0{fill:#FFFFFF;}
</style>
<path class="st0" d="M4.5,51.5c0,16.2,13.2,29.4,29.4,29.4c7.4,0,14.2-2.8,19.3-7.3l34.2,34.2c0.4,0.4,0.9,0.6,1.4,0.6
	c0.5,0,1-0.2,1.4-0.6c0.8-0.8,0.8-2,0-2.8L56,70.8c4.5-5.2,7.3-11.9,7.3-19.3C63.3,35.2,50.1,22,33.9,22S4.5,35.2,4.5,51.5z
	 M8.4,51.5C8.4,37.4,19.8,26,33.9,26s25.5,11.4,25.5,25.5S47.9,77,33.9,77S8.4,65.5,8.4,51.5z"/>
</svg>
